<svg width="468" height="468" viewBox="0 0 468 468" fill="none" xmlns="http://www.w3.org/2000/svg">
<path fill-rule="evenodd" clip-rule="evenodd" d="M10.43 10.429C23.4477 -2.58832 44.553 -2.58832 57.5707 10.429L234 186.859L410.43 10.429C423.447 -2.58832 444.554 -2.58832 457.57 10.429C470.587 23.4467 470.587 44.552 457.57 57.5697L281.14 233.999L457.57 410.429C470.587 423.446 470.587 444.553 457.57 457.569C444.554 470.586 423.447 470.586 410.43 457.569L234 281.139L57.5707 457.569C44.553 470.586 23.4477 470.586 10.43 457.569C-2.58734 444.553 -2.58734 423.446 10.43 410.429L186.86 233.999L10.43 57.5697C-2.58734 44.552 -2.58734 23.4467 10.43 10.429Z" fill="#743289"/>
</svg>
