<svg width="1008" height="253" viewBox="0 0 1008 253" fill="none" xmlns="http://www.w3.org/2000/svg">
<path fill-rule="evenodd" clip-rule="evenodd" d="M774.863 0.556641C764.595 0.556641 755.887 8.68563 755.887 18.6891V234.311C755.887 244.326 761.597 252.443 771.864 252.443H986.526C996.805 252.443 1007.77 244.326 1007.77 234.311V18.6891C1007.77 8.68563 999.804 0.556641 989.524 0.556641H774.863ZM809.863 32.0425C822.289 32.0425 832.353 42.106 832.353 54.5324C832.353 66.9588 822.289 77.0223 809.863 77.0223C797.436 77.0223 787.373 66.9588 787.373 54.5324C787.373 42.106 797.436 32.0425 809.863 32.0425ZM150.183 32.9325C138.272 32.9325 128.56 42.6095 128.56 54.5321C128.56 66.4548 138.272 76.1318 150.183 76.1318C162.105 76.1318 171.759 66.4548 171.759 54.5321C171.759 42.6095 162.105 32.9325 150.183 32.9325ZM0.226562 36.5405V216.46H108.178V180.476H36.2104V36.5405H0.226562ZM336.076 36.5405V216.46H372.059V156.487L416.43 216.46H458.903L408.043 150.887L456.022 96.5135H414.041L372.059 144.492V36.5405H336.076ZM683.919 36.5405V110.804H683.568C676.239 101.952 664.123 95.0142 644.632 95.0142C613.146 95.0142 587.705 119.684 587.705 156.627C587.705 195.406 613.521 217.959 643.508 217.959C665.506 217.959 678.485 210.829 685.957 202.169H686.309V216.46H719.903V36.5405H683.919ZM265.748 95.0142C246.868 95.0142 231.584 104.483 226.414 113.803H226.04V96.5135H192.14V216.46H228.124V158.853C228.124 140.825 236.743 126.5 254.831 126.5C269.728 126.5 276.103 138.784 276.103 156.44V216.46H312.086V149.88C312.086 117.998 301.984 95.0142 265.748 95.0142ZM518.736 95.0142C477.75 95.0142 456.022 118.995 456.022 153.816C456.022 193.014 480.006 217.959 517.681 217.959C545.917 217.959 563.399 208.131 571.892 197.132L549.495 178.976C544.649 185.561 533.908 193.97 518.267 193.97C500.347 193.97 492.541 181.327 490.178 170.988L489.991 167.286H575.312C575.312 167.286 575.968 163.247 575.968 159.157C575.968 118.268 554.132 95.0142 518.736 95.0142ZM925.451 95.0142C961.687 95.0142 971.79 114.244 971.79 149.88V216.46H935.806V156.44C935.806 140.487 929.432 126.5 914.534 126.5C896.446 126.5 887.828 138.75 887.828 158.853V216.46H851.844V96.5135H885.743V113.803H886.117C891.286 104.483 906.572 95.0142 925.451 95.0142ZM132.167 96.5135V216.46H168.151V96.5135H132.167ZM791.871 96.5135H827.855V216.46H791.871V96.5135ZM517.658 119.003C532.291 119.003 541.583 131.838 541.343 144.492H489.991C490.962 132.605 500.242 119.003 517.658 119.003ZM653.675 122.002C674.27 122.002 686.309 135.719 686.309 156.182C686.309 176.093 674.27 190.971 653.675 190.971C633.104 190.971 621.557 175.697 621.557 156.182C621.557 136.679 633.104 122.002 653.675 122.002Z" fill="white"/>
</svg>
